<svg xmlns="http://www.w3.org/2000/svg" version="1.1" width="180" height="180" viewBox="0 0 180 180" xml:space="preserve" id="SVGRoot" inkscape:version="1.4.3 (0d15f75, 2025-12-25)" sodipodi:docname="logo.svg" xmlns:inkscape="http://www.inkscape.org/namespaces/inkscape" xmlns:sodipodi="http://sodipodi.sourceforge.net/DTD/sodipodi-0.dtd" xmlns:svg="http://www.w3.org/2000/svg"><defs id="defs2"></defs><sodipodi:namedview pagecolor="#a9a9a9" bordercolor="#292929" borderopacity="1" inkscape:showpageshadow="2" inkscape:pageopacity="0.0" inkscape:pagecheckerboard="0" inkscape:deskcolor="#232323" id="namedview1" showguides="true" inkscape:zoom="4" inkscape:cx="103.875" inkscape:cy="100.25" inkscape:window-width="2040" inkscape:window-height="1224" inkscape:window-x="893" inkscape:window-y="50" inkscape:window-maximized="0" inkscape:current-layer="SVGRoot"></sodipodi:namedview><style type="text/css" id="style1">
g.prefab path {
  vector-effect:non-scaling-stroke;
  -inkscape-stroke:hairline;
  fill: none;
  fill-opacity: 1;
  stroke-opacity: 1;
  stroke: #00349c;
}
</style><g inkscape:label="Target" style="display:none;fill:#ffffff;stroke:#000000;stroke-width:2" class="prefab" id="g2" transform="matrix(0.1999268,0,0,0.19999999,0.06221581,2.7499999e-7)">
  <path d="M 849.53146,50.000002 H 49.707105 L 849.53146,850.00003 Z M 451.68747,50 H 850 V 850 H 451.68747 Z M 50.175632,450 H 849.99997 V 850 H 50.175632 Z m -10e-7,-399.999998 H 849.99998 L 50.175631,850.00003 Z" id="path1"></path>
  <path d="M 450,50 A 400,400 0 0 0 50,450 400,400 0 0 0 450,850 400,400 0 0 0 850,450 400,400 0 0 0 450,50 Z m 0,100 A 300,300 0 0 1 750,450 300,300 0 0 1 450,750 300,300 0 0 1 150,450 300,300 0 0 1 450,150 Z m 0,100 A 200,200 0 0 0 250,450 200,200 0 0 0 450,650 200,200 0 0 0 650,450 200,200 0 0 0 450,250 Z m 0,100 A 100,100 0 0 1 550,450 100,100 0 0 1 450,550 100,100 0 0 1 350,450 100,100 0 0 1 450,350 Z" id="path2"></path>
</g><path id="path6-2-1-2" style="display:inline;fill:#00acc1;stroke-width:0.620587" inkscape:label="path1" d="m 120.86719,90.994141 c -9.48633,0.0043 -18.97266,0.0057 -28.458987,0.0078 11.391717,11.425327 22.777337,22.856757 34.199217,34.251957 1.80834,0.49849 3.69155,-0.3395 4.94172,-1.6456 4.14169,-3.76006 6.54974,-8.95775 8.67431,-14.03031 1.97082,-4.94871 3.34098,-10.339754 2.6496,-15.691281 -0.39368,-1.647812 -1.95399,-3.147636 -3.73672,-2.883538 -6.08956,-0.05953 -12.17944,-0.01439 -18.26914,-0.009 z"></path><path id="path6-2" style="display:inline;fill:#64b5f6;stroke-width:0.706197" inkscape:label="path2" d="m 91,94.84375 c 1.14e-4,17.68622 -0.02139,35.37253 0.06836,53.05859 0.959937,1.97903 3.246501,2.88002 5.34633,2.84576 5.802511,0.29198 11.416201,-1.62299 16.763841,-3.65502 5.7673,-2.31451 11.35895,-5.47693 15.56106,-10.13064 1.05826,-1.32938 1.90262,-3.18027 1.29448,-4.87003 -1.29826,-2.3003 -3.57448,-3.78781 -5.28106,-5.7529 -11.25035,-11.30588 -22.5007,-22.61176 -33.751057,-33.917635 -6.51e-4,0.807292 -0.0013,1.614583 -0.002,2.421875 z"></path><path id="path6" style="display:inline;fill:#ba68c8;stroke-width:0.877446" inkscape:label="path3" d="M 87.292969,94.119141 C 71.612173,109.79838 55.92985,125.47613 40.287109,141.19336 c -1.342307,2.27802 -0.49475,5.22322 1.211068,7.06708 3.870571,4.82824 9.407591,7.87753 14.828003,10.64768 7.184721,3.56707 14.991077,6.0734 22.990226,6.68368 1.159143,0.0711 2.569196,0.074 3.816279,-0.11221 2.080406,-0.29596 4.463795,-1.09069 5.420049,-3.13584 0.857119,-2.24828 0.243319,-4.68114 0.416325,-7.01523 0.01923,-20.97214 0.03072,-41.94427 0.03094,-62.916411 -0.56901,0.569011 -1.138021,1.138021 -1.707031,1.707032 z"></path><path id="path6-2-1" style="display:inline;fill:#f48fb1;stroke-width:0.705621" inkscape:label="path4" d="m 33.402344,91.007812 c -2.361187,-0.0783 -4.081824,2.311485 -4.073645,4.51943 -0.530848,6.375248 1.598274,12.572558 3.922821,18.407048 2.302513,5.55496 5.449345,10.91665 10.008246,14.91727 1.41309,1.05297 3.485172,1.88365 5.121093,0.84961 2.146468,-1.45556 3.651044,-3.62777 5.596862,-5.31532 C 65.177204,113.25723 76.376688,102.12862 87.576172,91 c -18.057943,0.0026 -36.115886,0.0052 -54.173828,0.0078 z"></path><path id="path6-2-1-1" style="display:inline;fill:#ff5252;stroke-width:0.804548" inkscape:label="path5" d="m 40.414062,43.921875 c -3.284861,0.50641 -5.672526,3.109716 -7.610666,5.607175 -4.57458,5.812887 -7.704358,12.635973 -9.895193,19.668216 -1.604818,5.220307 -2.994577,11.0274 -1.610417,16.528379 0.577525,2.033624 2.699639,3.520983 4.820136,3.231805 5.351862,0.08516 10.705029,0.0059 16.057469,0.04255 15.1375,0 30.275,0 45.4125,0 C 72.745272,74.177198 57.917699,59.342428 43.027344,44.568359 42.24277,44.110897 41.338584,43.735698 40.414062,43.921875 Z"></path><path id="path6-4" style="display:inline;fill:#ffb74d;stroke-width:0.909362" inkscape:label="path6" d="m 79.317479,10.002432 c -6.491071,0.425514 -12.924358,2.288392 -18.858561,4.813119 -5.921188,2.608462 -11.810747,5.583605 -16.722608,9.951084 -1.705426,1.592177 -3.375175,3.302093 -4.54785,5.359942 -0.955429,1.83133 -1.239169,4.312146 0.151472,5.999611 1.601872,2.195121 3.769675,3.847094 5.539031,5.886445 C 59.585975,57.205037 74.292988,72.397441 89,87.589844 88.994814,63.280597 89.00456,38.971293 88.923152,14.662152 88.313166,12.056591 85.762194,10.422216 83.287835,10.218045 81.973877,10.02244 80.643129,9.9896442 79.317477,10.002432 Z"></path><path id="path6-2-5" style="display:inline;fill:#c0ca33;stroke-width:0.750121" inkscape:label="path7" d="m 96.298828,25.541016 c -1.947405,0.165761 -4.246717,0.933941 -4.945416,2.958238 -0.739804,2.295613 -0.15787,4.730632 -0.35147,7.087855 -6.47e-4,17.333594 -0.0013,34.667188 -0.0019,52.000782 13.87263,-13.876085 27.75146,-27.746018 41.58203,-41.664063 0.8742,-2.171687 -0.0896,-4.630231 -1.6864,-6.196363 -4.40446,-4.898153 -10.47653,-7.847743 -16.4093,-10.401293 -5.74458,-2.376316 -11.9306,-4.002105 -18.187502,-3.785156 z"></path><path id="path3" style="display:inline;fill:#8bc34a;stroke-width:1.6946" inkscape:label="path8" d="m 141.26758,41.318359 c -2.57646,0.523391 -4.06497,2.899408 -5.85463,4.588088 -14.3404,14.360995 -28.67704,28.725737 -43.008653,43.095506 22.117843,-0.0079 44.235713,-0.0038 66.353513,-0.05469 2.48766,-0.638296 3.95815,-3.243652 4.03527,-5.68938 0.62575,-6.399964 -1.28915,-12.80137 -3.34777,-18.705152 -2.6571,-7.424699 -6.45769,-14.573733 -11.94276,-20.301503 -1.67963,-1.591648 -3.82106,-3.040807 -6.23497,-2.932872 z"></path><style>@media (prefers-color-scheme: light) { :root { filter: none; } }
@media (prefers-color-scheme: dark) { :root { filter: none; } }
</style></svg>